<svg width="238" height="23" viewBox="0 0 238 23" fill="none" xmlns="http://www.w3.org/2000/svg">
<path d="M189.027 17.0784C188.329 17.0784 187.681 16.9535 187.081 16.7037C186.492 16.4538 185.981 16.1079 185.548 15.666C185.126 15.2144 184.816 14.6907 184.62 14.095L186.285 13.3888C186.551 14.0037 186.934 14.4889 187.435 14.8445C187.936 15.1904 188.501 15.3633 189.13 15.3633C189.484 15.3633 189.788 15.3105 190.044 15.2048C190.309 15.0895 190.511 14.9357 190.648 14.7436C190.796 14.5514 190.869 14.3208 190.869 14.0518C190.869 13.7347 190.771 13.4753 190.575 13.2735C190.388 13.0621 190.103 12.8988 189.72 12.7835L187.612 12.1205C186.757 11.8611 186.113 11.472 185.681 10.9531C185.249 10.4343 185.032 9.82414 185.032 9.12274C185.032 8.50781 185.185 7.96495 185.489 7.49414C185.804 7.02334 186.236 6.65822 186.786 6.3988C187.347 6.12977 187.985 5.99525 188.703 5.99525C189.361 5.99525 189.965 6.11055 190.516 6.34115C191.066 6.56214 191.538 6.87441 191.931 7.27796C192.333 7.67189 192.633 8.13789 192.83 8.67596L191.179 9.39658C190.963 8.85851 190.638 8.44536 190.206 8.15711C189.774 7.85926 189.273 7.71033 188.703 7.71033C188.369 7.71033 188.074 7.76798 187.818 7.88328C187.563 7.98897 187.361 8.1427 187.214 8.34447C187.076 8.53664 187.008 8.76724 187.008 9.03627C187.008 9.33412 187.106 9.59835 187.302 9.82895C187.499 10.0499 187.799 10.2229 188.201 10.3478L190.221 10.9675C191.095 11.2462 191.749 11.6305 192.181 12.1205C192.623 12.6105 192.844 13.2159 192.844 13.9365C192.844 14.5514 192.682 15.0943 192.358 15.5651C192.034 16.0359 191.587 16.4058 191.017 16.6748C190.447 16.9439 189.784 17.0784 189.027 17.0784Z" fill="#AEAEAE"/>
<path d="M198.29 16.9919C197.386 16.9919 196.684 16.7517 196.182 16.2713C195.691 15.7813 195.445 15.0943 195.445 14.2103V10.7513H194.06V9.06509H194.207C194.6 9.06509 194.905 8.9642 195.121 8.76243C195.337 8.56066 195.445 8.26761 195.445 7.88328V7.27796H197.376V9.06509H199.219V10.7513H197.376V14.1094C197.376 14.3688 197.421 14.5898 197.509 14.7724C197.607 14.955 197.755 15.0943 197.951 15.1904C198.158 15.2864 198.418 15.3345 198.732 15.3345C198.801 15.3345 198.88 15.3297 198.968 15.3201C199.067 15.3105 199.16 15.3008 199.248 15.2912V16.9054C199.111 16.9246 198.954 16.9439 198.777 16.9631C198.6 16.9823 198.438 16.9919 198.29 16.9919Z" fill="#AEAEAE"/>
<path d="M202.109 16.6748C202.571 16.9439 203.111 17.0784 203.73 17.0784C204.3 17.0784 204.797 16.9583 205.219 16.7181C205.544 16.5376 205.799 16.2894 205.986 15.9734V16.9054H207.813V9.06509H205.882V13.6626C205.882 14.0085 205.814 14.3064 205.676 14.5562C205.539 14.806 205.347 15.003 205.101 15.1471C204.856 15.2816 204.576 15.3489 204.261 15.3489C203.947 15.3489 203.662 15.2816 203.406 15.1471C203.161 15.003 202.969 14.8108 202.831 14.5706C202.704 14.3208 202.64 14.0326 202.64 13.7059V9.06509H200.709V13.8644C200.709 14.5082 200.827 15.0702 201.063 15.5507C201.308 16.0311 201.657 16.4058 202.109 16.6748Z" fill="#AEAEAE"/>
<path fill-rule="evenodd" clip-rule="evenodd" d="M213.485 17.0784C212.709 17.0784 212.016 16.9006 211.406 16.5451C210.797 16.18 210.316 15.6852 209.962 15.0606C209.608 14.4361 209.431 13.7443 209.431 12.9853C209.431 12.2166 209.608 11.5248 209.962 10.9099C210.316 10.2949 210.797 9.80493 211.406 9.43981C212.026 9.0747 212.713 8.89214 213.47 8.89214C214.079 8.89214 214.62 9.01225 215.091 9.25245C215.419 9.40949 215.699 9.61109 215.932 9.85726V5.99525H217.862V16.9054H216.035V16.0426C215.785 16.3344 215.47 16.5692 215.091 16.7469C214.6 16.9679 214.065 17.0784 213.485 17.0784ZM213.691 15.3489C214.133 15.3489 214.521 15.248 214.856 15.0462C215.19 14.8445 215.45 14.5658 215.637 14.2103C215.833 13.8548 215.932 13.4465 215.932 12.9853C215.932 12.5337 215.833 12.1301 215.637 11.7746C215.45 11.4095 215.19 11.1261 214.856 10.9243C214.521 10.7225 214.133 10.6216 213.691 10.6216C213.259 10.6216 212.871 10.7273 212.527 10.9387C212.183 11.1405 211.913 11.4191 211.716 11.7746C211.529 12.1205 211.436 12.5241 211.436 12.9853C211.436 13.4465 211.529 13.8548 211.716 14.2103C211.913 14.5658 212.183 14.8445 212.527 15.0462C212.871 15.248 213.259 15.3489 213.691 15.3489Z" fill="#AEAEAE"/>
<path d="M221.737 9.06509H219.806V16.9054H221.737V9.06509Z" fill="#AEAEAE"/>
<path fill-rule="evenodd" clip-rule="evenodd" d="M227.588 17.0784C226.802 17.0784 226.085 16.9006 225.436 16.5451C224.797 16.1896 224.286 15.7044 223.903 15.0895C223.53 14.4745 223.343 13.7731 223.343 12.9853C223.343 12.1974 223.53 11.496 223.903 10.8811C224.286 10.2661 224.797 9.78091 225.436 9.4254C226.075 9.06989 226.792 8.89214 227.588 8.89214C228.374 8.89214 229.087 9.06989 229.725 9.4254C230.364 9.78091 230.87 10.2661 231.244 10.8811C231.627 11.4864 231.818 12.1878 231.818 12.9853C231.818 13.7731 231.627 14.4745 231.244 15.0895C230.86 15.7044 230.349 16.1896 229.711 16.5451C229.072 16.9006 228.364 17.0784 227.588 17.0784ZM227.588 15.3489C228.021 15.3489 228.399 15.248 228.723 15.0462C229.057 14.8445 229.318 14.5658 229.504 14.2103C229.701 13.8452 229.799 13.4368 229.799 12.9853C229.799 12.5241 229.701 12.1205 229.504 11.7746C229.318 11.4191 229.057 11.1405 228.723 10.9387C228.399 10.7273 228.021 10.6216 227.588 10.6216C227.146 10.6216 226.758 10.7273 226.424 10.9387C226.09 11.1405 225.824 11.4191 225.628 11.7746C225.441 12.1205 225.348 12.5241 225.348 12.9853C225.348 13.4368 225.441 13.8452 225.628 14.2103C225.824 14.5658 226.09 14.8445 226.424 15.0462C226.758 15.248 227.146 15.3489 227.588 15.3489Z" fill="#AEAEAE"/>
<path fill-rule="evenodd" clip-rule="evenodd" d="M133.792 16.9054V6.16823H137.374C138.534 6.16823 139.541 6.39882 140.396 6.86002C141.261 7.31161 141.929 7.94095 142.4 8.74804C142.872 9.54553 143.108 10.4727 143.108 11.5296C143.108 12.5769 142.872 13.5089 142.4 14.3256C141.929 15.1327 141.261 15.7669 140.396 16.2281C139.541 16.6797 138.534 16.9054 137.374 16.9054H133.792ZM135.797 15.176H137.418C138.165 15.176 138.809 15.027 139.349 14.7292C139.9 14.4217 140.327 13.999 140.632 13.4609C140.936 12.9132 141.089 12.2695 141.089 11.5296C141.089 10.7802 140.936 10.1364 140.632 9.59837C140.327 9.06031 139.9 8.64235 139.349 8.34449C138.809 8.04664 138.165 7.89771 137.418 7.89771H135.797V15.176Z" fill="#AEAEAE"/>
<path fill-rule="evenodd" clip-rule="evenodd" d="M148.491 17.0784C147.666 17.0784 146.944 16.8958 146.325 16.5307C145.706 16.1656 145.224 15.6708 144.88 15.0462C144.536 14.4217 144.364 13.7299 144.364 12.9709C144.364 12.183 144.536 11.4864 144.88 10.8811C145.234 10.2661 145.711 9.78093 146.31 9.42542C146.919 9.06992 147.597 8.89216 148.344 8.89216C148.973 8.89216 149.523 8.99305 149.995 9.19482C150.476 9.3966 150.884 9.67524 151.218 10.0307C151.552 10.3862 151.808 10.7946 151.985 11.2558C152.162 11.7074 152.25 12.1974 152.25 12.7259C152.25 12.8604 152.24 12.9997 152.221 13.1438C152.211 13.2879 152.186 13.4128 152.147 13.5185H146.37C146.394 13.7882 146.458 14.0381 146.561 14.268C146.737 14.6331 146.993 14.9165 147.327 15.1183C147.671 15.3201 148.064 15.421 148.506 15.421C148.948 15.421 149.322 15.3297 149.626 15.1471C149.941 14.9646 150.187 14.7196 150.363 14.4121L151.926 15.1615C151.769 15.5363 151.523 15.8678 151.189 16.156C150.855 16.4443 150.457 16.67 149.995 16.8334C149.543 16.9967 149.042 17.0784 148.491 17.0784ZM146.546 11.6161C146.486 11.7581 146.441 11.9118 146.409 12.0773H150.186C150.171 11.8991 150.131 11.731 150.069 11.5729C149.941 11.227 149.725 10.9531 149.42 10.7514C149.125 10.5496 148.767 10.4487 148.344 10.4487C147.941 10.4487 147.582 10.5496 147.268 10.7514C146.954 10.9435 146.713 11.2318 146.546 11.6161Z" fill="#AEAEAE"/>
<path d="M153.168 15.3777V16.9054H159.86V15.2336H155.823L159.831 10.6072V9.06511H153.375V10.7514H157.254L153.168 15.3777Z" fill="#AEAEAE"/>
<path fill-rule="evenodd" clip-rule="evenodd" d="M163.537 17.0784C162.977 17.0784 162.49 16.9871 162.078 16.8046C161.665 16.622 161.346 16.3626 161.12 16.0263C160.894 15.6804 160.781 15.2817 160.781 14.8301C160.781 14.3977 160.879 14.0134 161.075 13.6771C161.272 13.3312 161.577 13.0429 161.989 12.8123C162.402 12.5817 162.923 12.4184 163.552 12.3223L165.94 11.9419V11.6882C165.94 11.3519 165.802 11.0732 165.527 10.8522C165.262 10.6217 164.908 10.5064 164.466 10.5064C164.053 10.5064 163.684 10.6168 163.36 10.8378C163.046 11.0492 162.815 11.3327 162.667 11.6882L161.09 10.9387C161.247 10.5256 161.493 10.1701 161.827 9.87221C162.171 9.56474 162.574 9.32454 163.036 9.15159C163.498 8.97864 163.999 8.89216 164.539 8.89216C165.198 8.89216 165.777 9.01227 166.279 9.25247C166.78 9.48307 167.168 9.80975 167.443 10.2325C167.728 10.6457 167.87 11.1309 167.87 11.6882V16.9054H166.043V16.0832C165.941 16.1929 165.833 16.294 165.718 16.3866C165.434 16.6076 165.109 16.7805 164.746 16.9054C164.382 17.0207 163.979 17.0784 163.537 17.0784ZM163.92 13.7203L165.94 13.3848V13.7059C165.94 14.0614 165.851 14.3881 165.674 14.6859C165.507 14.9838 165.266 15.2192 164.952 15.3921C164.647 15.5555 164.294 15.6372 163.891 15.6372C163.576 15.6372 163.311 15.5603 163.095 15.4066C162.888 15.2432 162.785 15.027 162.785 14.758C162.785 14.4794 162.879 14.2536 163.065 14.0806C163.252 13.9077 163.537 13.7876 163.92 13.7203Z" fill="#AEAEAE"/>
<path d="M169.803 9.06511V16.9054H171.733V9.06511H169.803Z" fill="#AEAEAE"/>
<path d="M173.664 16.9054V9.06511H175.477V10.0271C175.662 9.70529 175.918 9.45189 176.243 9.26689C176.675 9.01707 177.177 8.89216 177.747 8.89216C178.336 8.89216 178.857 9.01707 179.309 9.26689C179.771 9.5167 180.129 9.8674 180.385 10.319C180.64 10.761 180.768 11.275 180.768 11.8611V16.9054H178.837V12.3079C178.837 11.962 178.769 11.6641 178.631 11.4143C178.493 11.1645 178.302 10.9724 178.056 10.8378C177.82 10.6937 177.54 10.6217 177.216 10.6217C176.901 10.6217 176.621 10.6937 176.376 10.8378C176.13 10.9724 175.938 11.1645 175.801 11.4143C175.663 11.6641 175.595 11.962 175.595 12.3079V16.9054H173.664Z" fill="#AEAEAE"/>
<path d="M123.171 20.2182C122.954 20.2182 122.742 20.1987 122.535 20.1598C122.328 20.1306 122.141 20.0721 121.973 19.9845V18.3924C122.101 18.4216 122.254 18.4508 122.432 18.48C122.619 18.5092 122.792 18.5238 122.949 18.5238C123.393 18.5238 123.714 18.4216 123.911 18.2171C124.118 18.0223 124.3 17.7594 124.458 17.4283L124.991 16.2014L124.961 17.8081L121.455 9.05872H123.541L125.997 15.5149H125.257L127.698 9.05872H129.798L126.292 17.8081C126.085 18.3145 125.834 18.7478 125.538 19.1081C125.242 19.4684 124.897 19.741 124.503 19.9261C124.118 20.1208 123.674 20.2182 123.171 20.2182Z" fill="#AEAEAE"/>
<path d="M116.72 17.18C116.138 17.18 115.601 17.068 115.108 16.8441C114.625 16.6104 114.24 16.2793 113.954 15.8508L114.146 15.471V17.0047H112.327V5.94751H114.265V10.6362L113.969 10.2419C114.245 9.8134 114.62 9.48232 115.093 9.24861C115.566 9.00517 116.114 8.88344 116.735 8.88344C117.494 8.88344 118.18 9.06846 118.791 9.4385C119.403 9.80853 119.886 10.3052 120.241 10.9284C120.606 11.5516 120.788 12.2527 120.788 13.0317C120.788 13.801 120.611 14.5021 120.256 15.1351C119.901 15.768 119.417 16.2695 118.806 16.6396C118.195 16.9999 117.499 17.18 116.72 17.18ZM116.498 15.4272C116.942 15.4272 117.337 15.325 117.682 15.1205C118.027 14.916 118.293 14.6336 118.481 14.2733C118.678 13.913 118.776 13.4991 118.776 13.0317C118.776 12.5643 118.678 12.1553 118.481 11.8048C118.293 11.4445 118.027 11.1621 117.682 10.9576C117.337 10.7434 116.942 10.6362 116.498 10.6362C116.074 10.6362 115.69 10.7385 115.345 10.943C115.009 11.1475 114.743 11.4347 114.546 11.8048C114.358 12.1651 114.265 12.5741 114.265 13.0317C114.265 13.4991 114.358 13.913 114.546 14.2733C114.743 14.6336 115.009 14.916 115.345 15.1205C115.69 15.325 116.074 15.4272 116.498 15.4272Z" fill="#AEAEAE"/>
<path d="M103.354 17.18C102.575 17.18 101.88 16.9999 101.268 16.6396C100.657 16.2695 100.174 15.768 99.8186 15.1351C99.4636 14.5021 99.2861 13.801 99.2861 13.0317C99.2861 12.2527 99.4636 11.5516 99.8186 10.9284C100.174 10.3052 100.657 9.80853 101.268 9.4385C101.889 9.06846 102.58 8.88344 103.339 8.88344C103.951 8.88344 104.493 9.00517 104.966 9.24861C105.449 9.48232 105.829 9.8134 106.105 10.2419L105.809 10.6362V5.94751H107.747V17.0047H105.913V15.471L106.12 15.8508C105.844 16.2793 105.459 16.6104 104.966 16.8441C104.473 17.068 103.936 17.18 103.354 17.18ZM103.561 15.4272C104.005 15.4272 104.394 15.325 104.73 15.1205C105.065 14.916 105.326 14.6336 105.514 14.2733C105.711 13.913 105.809 13.4991 105.809 13.0317C105.809 12.5741 105.711 12.1651 105.514 11.8048C105.326 11.4347 105.065 11.1475 104.73 10.943C104.394 10.7385 104.005 10.6362 103.561 10.6362C103.127 10.6362 102.738 10.7434 102.392 10.9576C102.047 11.1621 101.776 11.4445 101.579 11.8048C101.391 12.1553 101.298 12.5643 101.298 13.0317C101.298 13.4991 101.391 13.913 101.579 14.2733C101.776 14.6336 102.047 14.916 102.392 15.1205C102.738 15.325 103.127 15.4272 103.561 15.4272Z" fill="#AEAEAE"/>
<path d="M94.2966 17.18C93.4682 17.18 92.7434 16.995 92.1221 16.625C91.5008 16.2549 91.0176 15.7534 90.6725 15.1205C90.3273 14.4875 90.1548 13.7864 90.1548 13.0171C90.1548 12.2186 90.3273 11.5126 90.6725 10.8992C91.0275 10.2759 91.5058 9.78419 92.1073 9.42389C92.7187 9.06359 93.3992 8.88344 94.1487 8.88344C94.7798 8.88344 95.332 8.98569 95.8054 9.19018C96.2886 9.39468 96.6978 9.67707 97.0331 10.0374C97.3684 10.3977 97.6248 10.8115 97.8023 11.2789C97.9798 11.7366 98.0686 12.2332 98.0686 12.7688C98.0686 12.9051 98.0587 13.0463 98.039 13.1924C98.0291 13.3385 98.0045 13.4651 97.965 13.5722H91.7523V12.1115H96.8704L95.9533 12.798C96.0421 12.3501 96.0174 11.9508 95.8793 11.6003C95.7511 11.2497 95.5342 10.9722 95.2285 10.7677C94.9326 10.5632 94.5727 10.461 94.1487 10.461C93.7443 10.461 93.3844 10.5632 93.0688 10.7677C92.7533 10.9625 92.5116 11.2546 92.344 11.6441C92.1862 12.0239 92.1271 12.4864 92.1665 13.0317C92.1271 13.5186 92.1912 13.9519 92.3588 14.3317C92.5363 14.7018 92.7927 14.989 93.128 15.1935C93.4731 15.398 93.8676 15.5002 94.3114 15.5002C94.7551 15.5002 95.1299 15.4077 95.4356 15.2227C95.7511 15.0377 95.9977 14.7894 96.1752 14.4778L97.7432 15.2373C97.5854 15.6171 97.3388 15.9531 97.0036 16.2452C96.6683 16.5373 96.2689 16.7662 95.8054 16.9317C95.3518 17.0972 94.8488 17.18 94.2966 17.18Z" fill="#AEAEAE"/>
<path d="M80.4677 19.9261V9.05872H82.2871V10.6362L82.1096 10.2419C82.3858 9.8134 82.7605 9.48232 83.2338 9.24861C83.7072 9.00517 84.2545 8.88344 84.8758 8.88344C85.6351 8.88344 86.3205 9.06846 86.9319 9.4385C87.5433 9.80853 88.0265 10.3052 88.3815 10.9284C88.7464 11.5516 88.9289 12.2527 88.9289 13.0317C88.9289 13.801 88.7513 14.5021 88.3963 15.1351C88.0413 15.768 87.5581 16.2695 86.9467 16.6396C86.3353 16.9999 85.6401 17.18 84.861 17.18C84.2792 17.18 83.7417 17.068 83.2486 16.8441C82.7654 16.6104 82.3808 16.2793 82.0948 15.8508L82.4055 15.471V19.9261H80.4677ZM84.6391 15.4272C85.0829 15.4272 85.4773 15.325 85.8225 15.1205C86.1676 14.916 86.4339 14.6336 86.6213 14.2733C86.8185 13.913 86.9171 13.4991 86.9171 13.0317C86.9171 12.5643 86.8185 12.1553 86.6213 11.8048C86.4339 11.4445 86.1676 11.1621 85.8225 10.9576C85.4773 10.7434 85.0829 10.6362 84.6391 10.6362C84.2151 10.6362 83.8305 10.7385 83.4853 10.943C83.15 11.1475 82.8838 11.4347 82.6865 11.8048C82.4992 12.1651 82.4055 12.5741 82.4055 13.0317C82.4055 13.4991 82.4992 13.913 82.6865 14.2733C82.8838 14.6336 83.15 14.916 83.4853 15.1205C83.8305 15.325 84.2151 15.4272 84.6391 15.4272Z" fill="#AEAEAE"/>
<path d="M74.6789 17.18C73.89 17.18 73.1701 16.9999 72.5192 16.6396C71.8782 16.2793 71.3654 15.7875 70.9808 15.1643C70.6061 14.5411 70.4187 13.8302 70.4187 13.0317C70.4187 12.2332 70.6061 11.5224 70.9808 10.8992C71.3654 10.2759 71.8782 9.78419 72.5192 9.42389C73.1602 9.06359 73.8801 8.88344 74.6789 8.88344C75.4678 8.88344 76.1828 9.06359 76.8237 9.42389C77.4647 9.78419 77.9726 10.2759 78.3473 10.8992C78.7319 11.5126 78.9242 12.2235 78.9242 13.0317C78.9242 13.8302 78.7319 14.5411 78.3473 15.1643C77.9627 15.7875 77.45 16.2793 76.809 16.6396C76.168 16.9999 75.4579 17.18 74.6789 17.18ZM74.6789 15.4272C75.1128 15.4272 75.4925 15.325 75.8179 15.1205C76.1532 14.916 76.4145 14.6336 76.6019 14.2733C76.7991 13.9033 76.8977 13.4894 76.8977 13.0317C76.8977 12.5643 76.7991 12.1553 76.6019 11.8048C76.4145 11.4445 76.1532 11.1621 75.8179 10.9576C75.4925 10.7434 75.1128 10.6362 74.6789 10.6362C74.2351 10.6362 73.8456 10.7434 73.5103 10.9576C73.175 11.1621 72.9087 11.4445 72.7115 11.8048C72.5241 12.1553 72.4305 12.5643 72.4305 13.0317C72.4305 13.4894 72.5241 13.9033 72.7115 14.2733C72.9087 14.6336 73.175 14.916 73.5103 15.1205C73.8456 15.325 74.2351 15.4272 74.6789 15.4272Z" fill="#AEAEAE"/>
<path d="M66.9432 17.0047V5.94751H68.881V17.0047H66.9432Z" fill="#AEAEAE"/>
<path d="M61.6283 17.18C60.8 17.18 60.0752 16.995 59.4539 16.625C58.8326 16.2549 58.3494 15.7534 58.0042 15.1205C57.6591 14.4875 57.4865 13.7864 57.4865 13.0171C57.4865 12.2186 57.6591 11.5126 58.0042 10.8992C58.3593 10.2759 58.8375 9.78419 59.4391 9.42389C60.0505 9.06359 60.7309 8.88344 61.4804 8.88344C62.1115 8.88344 62.6638 8.98569 63.1371 9.19018C63.6204 9.39468 64.0296 9.67707 64.3649 10.0374C64.7002 10.3977 64.9566 10.8115 65.1341 11.2789C65.3116 11.7366 65.4003 12.2332 65.4003 12.7688C65.4003 12.9051 65.3905 13.0463 65.3708 13.1924C65.3609 13.3385 65.3362 13.4651 65.2968 13.5722H59.0841V12.1115H64.2022L63.2851 12.798C63.3738 12.3501 63.3492 11.9508 63.2111 11.6003C63.0829 11.2497 62.866 10.9722 62.5602 10.7677C62.2644 10.5632 61.9045 10.461 61.4804 10.461C61.0761 10.461 60.7161 10.5632 60.4006 10.7677C60.085 10.9625 59.8434 11.2546 59.6758 11.6441C59.518 12.0239 59.4588 12.4864 59.4983 13.0317C59.4588 13.5186 59.5229 13.9519 59.6906 14.3317C59.8681 14.7018 60.1245 14.989 60.4598 15.1935C60.8049 15.398 61.1994 15.5002 61.6431 15.5002C62.0869 15.5002 62.4616 15.4077 62.7673 15.2227C63.0829 15.0377 63.3294 14.7894 63.5069 14.4778L65.0749 15.2373C64.9171 15.6171 64.6706 15.9531 64.3353 16.2452C64 16.5373 63.6006 16.7662 63.1371 16.9317C62.6835 17.0972 62.1806 17.18 61.6283 17.18Z" fill="#AEAEAE"/>
<path d="M51.93 17.0047L48.7644 9.05872H50.8797L53.1725 15.3104H52.3885L54.6961 9.05872H56.8114L53.6459 17.0047H51.93Z" fill="#AEAEAE"/>
<path d="M44.3336 17.18C43.5052 17.18 42.7804 16.995 42.1591 16.625C41.5379 16.2549 41.0546 15.7534 40.7095 15.1205C40.3643 14.4875 40.1918 13.7864 40.1918 13.0171C40.1918 12.2186 40.3643 11.5126 40.7095 10.8992C41.0645 10.2759 41.5428 9.78419 42.1443 9.42389C42.7557 9.06359 43.4362 8.88344 44.1857 8.88344C44.8168 8.88344 45.369 8.98569 45.8424 9.19018C46.3256 9.39468 46.7349 9.67707 47.0701 10.0374C47.4054 10.3977 47.6618 10.8115 47.8393 11.2789C48.0168 11.7366 48.1056 12.2332 48.1056 12.7688C48.1056 12.9051 48.0957 13.0463 48.076 13.1924C48.0662 13.3385 48.0415 13.4651 48.0021 13.5722H41.7893V12.1115H46.9074L45.9903 12.798C46.0791 12.3501 46.0544 11.9508 45.9164 11.6003C45.7882 11.2497 45.5712 10.9722 45.2655 10.7677C44.9697 10.5632 44.6097 10.461 44.1857 10.461C43.7813 10.461 43.4214 10.5632 43.1058 10.7677C42.7903 10.9625 42.5487 11.2546 42.381 11.6441C42.2232 12.0239 42.1641 12.4864 42.2035 13.0317C42.1641 13.5186 42.2282 13.9519 42.3958 14.3317C42.5733 14.7018 42.8297 14.989 43.165 15.1935C43.5102 15.398 43.9046 15.5002 44.3484 15.5002C44.7921 15.5002 45.1669 15.4077 45.4726 15.2227C45.7882 15.0377 46.0347 14.7894 46.2122 14.4778L47.7802 15.2373C47.6224 15.6171 47.3758 15.9531 47.0406 16.2452C46.7053 16.5373 46.3059 16.7662 45.8424 16.9317C45.3888 17.0972 44.8858 17.18 44.3336 17.18Z" fill="#AEAEAE"/>
<path d="M29.6562 17.0047V6.12279H33.2508C34.4144 6.12279 35.4252 6.3565 36.2832 6.82391C37.151 7.28158 37.8215 7.91941 38.2949 8.73738C38.7682 9.54561 39.0049 10.4853 39.0049 11.5565C39.0049 12.6179 38.7682 13.5624 38.2949 14.3901C37.8215 15.2081 37.151 15.8508 36.2832 16.3182C35.4252 16.7759 34.4144 17.0047 33.2508 17.0047H29.6562ZM31.668 15.2519H33.2951C34.0446 15.2519 34.6905 15.101 35.2329 14.7991C35.7852 14.4875 36.2141 14.0591 36.5198 13.5137C36.8255 12.9587 36.9784 12.3063 36.9784 11.5565C36.9784 10.7969 36.8255 10.1445 36.5198 9.59917C36.2141 9.05385 35.7852 8.63026 35.2329 8.32839C34.6905 8.02652 34.0446 7.87559 33.2951 7.87559H31.668V15.2519Z" fill="#AEAEAE"/>
<g clip-path="url(#clip0_194_61)">
<path d="M12.6953 1.81479C13.8359 1.81483 14.7607 2.73691 14.7607 3.87436C14.7607 5.01182 13.8359 5.93389 12.6953 5.93393C11.5546 5.93393 10.6299 5.01184 10.6299 3.87436C10.6299 2.73689 11.5547 1.81479 12.6953 1.81479Z" fill="#F0EB0D"/>
<path d="M12.6953 16.2888C13.8359 16.2888 14.7607 17.2109 14.7607 18.3484C14.7607 19.4858 13.8359 20.4079 12.6953 20.4079C11.5546 20.4079 10.6299 19.4858 10.6299 18.3484C10.6299 17.2109 11.5547 16.2888 12.6953 16.2888Z" fill="#AA86C4"/>
<path d="M6.10261 4.53797C6.90916 3.73366 8.21693 3.7337 9.0235 4.53797C9.83008 5.34229 9.83008 6.64575 9.0235 7.45008C8.21693 8.25437 6.90917 8.25439 6.10261 7.45008C5.29654 6.64584 5.29652 5.34219 6.10261 4.53797Z" fill="#FEAC00"/>
<path d="M16.3653 14.7726C17.1719 13.9683 18.4796 13.9684 19.2862 14.7726C20.0928 15.577 20.0928 16.8804 19.2862 17.6848C18.4796 18.489 17.1719 18.4891 16.3653 17.6848C15.5592 16.8805 15.5592 15.5769 16.3653 14.7726Z" fill="#6EACDF"/>
<path d="M19.9521 9.05179C21.0928 9.05183 22.0176 9.97391 22.0176 11.1114C22.0176 12.2488 21.0928 13.1709 19.9521 13.1709C18.8115 13.1709 17.8867 12.2488 17.8867 11.1114C17.8867 9.97389 18.8115 9.05179 19.9521 9.05179Z" fill="#44C899"/>
<path d="M5.4375 9.05179C6.57812 9.05183 7.50291 9.97391 7.50293 11.1114C7.50293 12.2488 6.57813 13.1709 5.4375 13.1709C4.29684 13.1709 3.37207 12.2488 3.37207 11.1114C3.37209 9.97389 4.29685 9.05179 5.4375 9.05179Z" fill="#FF7D7B"/>
<path d="M16.3653 4.53798C17.1719 3.73368 18.4796 3.73372 19.2862 4.53798C20.0928 5.34231 20.0928 6.64577 19.2862 7.45009C18.4796 8.25439 17.1719 8.2544 16.3653 7.45009C15.5592 6.64586 15.5592 5.34221 16.3653 4.53798Z" fill="#A3DC4F"/>
<path d="M6.10261 14.7726C6.90916 13.9683 8.21693 13.9684 9.0235 14.7726C9.83007 15.577 9.83008 16.8804 9.0235 17.6847C8.21693 18.489 6.90917 18.4891 6.10261 17.6847C5.29654 16.8805 5.29652 15.5769 6.10261 14.7726Z" fill="#E175A7"/>
</g>
<defs>
<clipPath id="clip0_194_61">
<rect width="19.4286" height="19.4028" fill="white" transform="translate(2.98047 1.41707)"/>
</clipPath>
</defs>
</svg>
